# xmcd
#
# Track frame offsets:
#	150
#	9259
#	18996
#	27751
#	40200
#	52557
#	60974
#	73706
#	84458
#	96858
#	105217
#	119759
#	129964
#	140976
#	150675
#	161357
#	174067
#	187929
#
# Disc length: 2668 seconds
#
# Revision: 0
# Processed by: cddbd v1.5.2PL0 Copyright (c) Steve Scherf et al.
# Submitted via: audiograbber 1.83.01
#
DISCID=cf0a6a12
DTITLE=Soundtrack - Eis am Stiel - Die Superparty
DYEAR=1993
DGENRE=Oldies
TTITLE0=Love´s made a fool of you - Bobby Fuller Four
TTITLE1=Heart and soul - Jan and Dean
TTITLE2=Claudette - Roy Orbison
TTITLE3=Chapel of love - The Dixie Cups
TTITLE4=Lazy lady - Fats Domino
TTITLE5=Great balls of fire - Jerry Lee Lewis
TTITLE6=Honey don´t - Carl Perkins
TTITLE7=Raunchy - Bill Justis
TTITLE8=Twilight time - The Platters
TTITLE9=That´s my little Susie - Ritchie Valens
TTITLE10=She´s a heartbreaker - Gene Pitney
TTITLE11=I met him on a sunday - The Shirelles
TTITLE12=When we get married - The Dreamlovers
TTITLE13=Too much Tequila - Champs
TTITLE14=Tutti Frutti - Little Richard
TTITLE15=If paradise is jalf as nice - Amen Corner
TTITLE16=Tammy - Debbie Reynolds
TTITLE17=Goodnite sweetheart - The Spaniels
EXTD=
EXTT0=
EXTT1=
EXTT2=
EXTT3=
EXTT4=
EXTT5=
EXTT6=
EXTT7=
EXTT8=
EXTT9=
EXTT10=
EXTT11=
EXTT12=
EXTT13=
EXTT14=
EXTT15=
EXTT16=
EXTT17=
PLAYORDER=
